<?xml version="1.0" encoding="utf-8"?>
<!-- Generator: Adobe Illustrator 24.1.2, SVG Export Plug-In . SVG Version: 6.00 Build 0)  -->
<svg version="1.1" id="Layer_1" xmlns="http://www.w3.org/2000/svg" xmlns:xlink="http://www.w3.org/1999/xlink" x="0px" y="0px"
	 viewBox="0 0 1874 460" style="enable-background:new 0 0 1874 460;" xml:space="preserve">
<style type="text/css">
	.st0{fill:#895698;}
	.st1{fill:#5CBFC6;}
	.st2{fill:#1C0B00;}
	.st3{fill:#FBDC01;}
	.st4{fill:#FFFFFF;}
	.st5{fill:#E52452;}
</style>
<g>
	<path class="st0" d="M645.13,19.95c-129.11,0-258.17,6.1-387.37,5.16c-37.84-0.28-116.76-6.36-116.88,31.8
		c-0.22,71.98,4.84,233.37,14.26,356.35c3.16,41.17,546.93,12.49,563.55,6.61c8.83-3.12,17.76-1.64,21.85-12.72
		c3.69-9.96,1.17-244.54,1.17-287.36c0-32.16,7.07-82.8-21.21-94.98C702.96,17.25,664.22,19.95,645.13,19.95z"/>
	<path class="st1" d="M708.04,198.54c-0.12-29.65-23.93-31.85-53.3-31.72l-417.7,1.87c-29.37,0.13-53.16,2.54-53.05,32.2l0.41,97.06
		c0.12,29.65,23.93,30.67,53.3,30.54l417.7-1.87c29.37-0.13,53.17-1.36,53.05-31.02L708.04,198.54z M641.57,258.98
		c0,12.09-9.8,21.89-21.89,21.89l-326.93,0.01c-12.09,0-21.89-9.8-21.89-21.89l0-29.59c0-12.09,9.8-21.89,21.89-21.89l326.93-0.01
		c12.09,0,21.89,9.8,21.89,21.89L641.57,258.98z"/>
	<path class="st2" d="M710.71,198.53c-0.03-7.59-1.55-13.75-4.45-18.6c-2.17-3.64-5.09-6.5-8.51-8.66
		c-5.14-3.25-11.36-5.01-18.26-6.01c-6.91-0.99-14.54-1.21-22.56-1.21c-0.73,0-1.46,0-2.19,0l-417.7,1.87
		c-14.72,0.09-28.22,0.63-38.55,5.22c-5.16,2.3-9.55,5.73-12.56,10.63c-3.02,4.9-4.59,11.15-4.59,18.89l0,0.24l0.41,97.05
		c0.03,7.49,1.51,13.52,4.34,18.25c2.12,3.55,4.99,6.31,8.34,8.38c5.04,3.11,11.11,4.72,17.86,5.62c6.75,0.89,14.21,1.05,22.07,1.05
		c1.11,0,2.23-0.01,3.36-0.01l417.7-1.87c7.34-0.03,14.38-0.13,20.88-0.74c4.87-0.46,9.43-1.2,13.59-2.44
		c3.12-0.93,6.02-2.15,8.62-3.78c3.91-2.42,7.15-5.8,9.32-10.23c2.18-4.43,3.29-9.85,3.29-16.38l0-0.22v-0.01L710.71,198.53z
		 M699.74,293.82c0,6.7-1.37,11.5-3.65,15.05c-1.72,2.67-3.98,4.7-6.84,6.32c-4.28,2.42-9.94,3.83-16.55,4.59
		c-6.61,0.76-14.15,0.88-22.18,0.92l-407.98,1.79c-1.1,0-2.19,0.01-3.26,0.01c-6.76,0-13.12-0.12-18.8-0.72
		c-4.26-0.44-8.13-1.16-11.5-2.24c-5.06-1.64-8.91-4.06-11.57-7.7c-2.66-3.64-4.27-8.68-4.31-15.99l-0.4-93.05l0-0.2
		c0.01-6.7,1.37-11.58,3.66-15.25c1.73-2.76,4.01-4.89,6.88-6.61c4.29-2.57,9.94-4.14,16.54-5.01c6.6-0.88,14.13-1.09,22.14-1.13
		l407.98-1.8c0.71,0,1.42-0.01,2.12-0.01c6.88,0,13.37,0.17,19.18,0.84c4.35,0.5,8.32,1.28,11.78,2.45
		c5.2,1.76,9.17,4.32,11.93,8.11c2.75,3.79,4.4,8.97,4.44,16.38l0.4,93.05V293.82z"/>
	<path class="st3" d="M719.83,113.79c0,21.65-17.55,39.21-39.2,39.21l-470.47,0.02c-21.65,0-39.21-17.55-39.21-39.2
		c0-21.65,17.55-39.21,39.21-39.21l470.47-0.02C702.28,74.58,719.83,92.13,719.83,113.79z"/>
	<path class="st2" d="M641.57,258.98l-2.77,0c0,5.29-2.14,10.06-5.6,13.52c-3.47,3.46-8.23,5.6-13.52,5.6l-326.93,0.01
		c-5.29,0-10.05-2.14-13.52-5.6c-3.46-3.47-5.6-8.23-5.6-13.52l0-29.59c0-5.29,2.14-10.05,5.6-13.52c3.47-3.46,8.23-5.6,13.52-5.6
		l326.93-0.01c5.29,0,10.06,2.14,13.52,5.6c3.47,3.47,5.6,8.23,5.6,13.52l0,29.59L641.57,258.98l2.77,0l0-29.59
		c0-13.62-11.04-24.66-24.66-24.66l-326.93,0.01c-13.62,0-24.66,11.04-24.66,24.66l0,29.59c0,13.62,11.04,24.66,24.66,24.66
		l326.93-0.01c13.62,0,24.66-11.04,24.66-24.66L641.57,258.98z"/>
	<path class="st2" d="M680.63,71.84l-470.47,0.02c-23.17,0-41.95,18.78-41.95,41.95c0,23.17,18.78,41.95,41.95,41.95l470.47-0.02
		c23.17,0,41.94-18.78,41.94-41.95C722.57,90.62,703.8,71.84,680.63,71.84z M704.03,137.65c-6.55,6.11-15.56,9.88-25.55,9.88
		l-466.17,0.02c-9.99,0-19-3.77-25.55-9.88c-6.54-6.11-10.58-14.53-10.58-23.86c0-9.33,4.04-17.75,10.58-23.86
		c6.55-6.11,15.56-9.88,25.55-9.88l466.17-0.02c9.98,0,19,3.77,25.55,9.88c6.54,6.11,10.53,13.78,10.53,23.86
		C714.55,123.11,710.57,131.53,704.03,137.65z"/>
	<path class="st2" d="M432.46,239.13c0,56.83-46.07,102.89-102.89,102.89c-56.83,0-102.89-46.06-102.89-102.89
		c0-56.82,46.06-102.89,102.89-102.89C386.39,136.24,432.46,182.31,432.46,239.13z"/>
	<path class="st4" d="M378.27,239.13c0,26.9-21.81,48.71-48.7,48.71c-26.9,0-48.71-21.8-48.71-48.7c0-26.9,21.8-48.71,48.7-48.71
		C356.46,190.43,378.27,212.23,378.27,239.13z"/>
	<path class="st2" d="M378.27,239.13l-2.77,0c0,12.7-5.14,24.16-13.46,32.48c-8.32,8.32-19.79,13.45-32.48,13.46
		c-12.7,0-24.16-5.14-32.48-13.45c-8.32-8.32-13.45-19.79-13.45-32.48c0-12.69,5.14-24.16,13.45-32.48
		c8.32-8.32,19.79-13.45,32.48-13.46c12.69,0,24.16,5.14,32.48,13.45c8.32,8.32,13.46,19.79,13.46,32.48L378.27,239.13l2.77,0
		c0-28.43-23.05-51.47-51.48-51.47c-28.43,0-51.47,23.04-51.47,51.48c0,28.43,23.04,51.47,51.48,51.47
		c28.42,0,51.47-23.04,51.47-51.48L378.27,239.13z"/>
	<path class="st2" d="M356.71,239.13l-2.77,0c0,6.74-2.72,12.82-7.14,17.25c-4.42,4.42-10.5,7.14-17.24,7.15
		c-6.74,0-12.82-2.73-17.25-7.15c-4.42-4.42-7.14-10.5-7.14-17.24c0-6.74,2.72-12.82,7.14-17.24c4.42-4.42,10.5-7.14,17.25-7.14
		c6.74,0,12.82,2.72,17.24,7.14c4.42,4.42,7.14,10.5,7.14,17.24L356.71,239.13l2.77,0c0-16.52-13.39-29.91-29.92-29.92
		c-16.53,0-29.92,13.4-29.93,29.92c0,16.52,13.4,29.92,29.93,29.93c16.53,0,29.91-13.41,29.92-29.93L356.71,239.13z"/>
	<path class="st2" d="M657.65,239.12c0,42.66-34.59,77.25-77.25,77.25c-42.68,0-77.25-34.59-77.25-77.25
		c0-42.66,34.57-77.25,77.25-77.25C623.06,161.88,657.65,196.46,657.65,239.12z"/>
	<path class="st4" d="M616.97,239.13c0,20.2-16.38,36.57-36.57,36.57c-20.19,0-36.57-16.37-36.57-36.57
		c0-20.2,16.37-36.57,36.56-36.57C600.58,202.56,616.97,218.93,616.97,239.13z"/>
	<path class="st2" d="M616.97,239.13l-2.77,0c0,9.34-3.78,17.78-9.9,23.9c-6.13,6.12-14.56,9.9-23.9,9.9
		c-9.34,0-17.77-3.78-23.9-9.9c-6.12-6.12-9.9-14.56-9.9-23.9c0-9.34,3.78-17.78,9.9-23.9c6.12-6.12,14.56-9.9,23.9-9.9
		c9.34,0,17.77,3.78,23.9,9.9c6.12,6.12,9.9,14.56,9.9,23.9L616.97,239.13l2.77,0c0-21.73-17.62-39.33-39.34-39.33
		c-21.72,0-39.33,17.6-39.33,39.33c0,21.73,17.61,39.33,39.33,39.33c21.72,0,39.33-17.61,39.34-39.34L616.97,239.13z"/>
	<path class="st2" d="M600.78,239.13l-2.77,0c0,4.87-1.97,9.26-5.16,12.46c-3.2,3.19-7.59,5.16-12.46,5.16
		c-4.88,0-9.26-1.97-12.46-5.16c-3.19-3.2-5.16-7.58-5.16-12.46c0-4.87,1.97-9.26,5.16-12.46c3.2-3.19,7.59-5.16,12.46-5.16
		c4.87,0,9.26,1.97,12.46,5.16c3.19,3.2,5.16,7.59,5.16,12.46L600.78,239.13l2.77,0c0-12.79-10.37-23.16-23.16-23.16
		c-12.79,0-23.16,10.37-23.16,23.16c0,12.79,10.37,23.15,23.16,23.16c12.79,0,23.15-10.37,23.15-23.16L600.78,239.13z"/>
	<path class="st5" d="M628.9,425.03c-13.59-59.67-56.31-84.77-207.99-76.1c-132.45,7.58-145.07,59.97-144.12,82.97
		C383.11,434.94,531.31,430.06,628.9,425.03z"/>
	<path class="st2" d="M622.52,390.4c-5.26-8.17-11.89-15.34-20.17-21.44c-12.43-9.15-28.53-15.9-49.42-20.37
		c-20.9-4.47-46.61-6.67-78.41-6.67c-16.62,0-34.89,0.61-55,1.81c-66.6,3.99-104.42,19.37-125.78,37.52
		c-10.67,9.07-17.16,18.83-20.94,28.04c-3.79,9.2-4.84,26.34-4.81,27.16c0.07,1.57,1.27,2.82,2.78,2.86
		c23.59,0.7,49.17,1.01,75.78,1.01c97.44,0,208.87-4.17,288.07-8.44c0.85-0.05,1.62-0.47,2.13-1.18
		C637.26,429.99,629.54,401.29,622.52,390.4z M279.52,429.21c0.05-5.62,1.02-12.64,4.25-20.15c4.99-11.56,15.29-24.41,36.4-35.21
		c21.1-10.79,53.04-19.41,100.9-22.15c19.39-1.11,36.98-1.66,52.94-1.66c27.15,0,49.57,1.6,68.07,4.79
		c27.75,4.79,46.57,13.11,59.5,24.79c6.48,5.85,11.52,12.55,15.51,20.2c3.54,6.78,6.24,14.32,8.33,22.62
		c-76.38,3.89-182.48,7.63-275.33,7.64C325.36,430.07,301.56,429.81,279.52,429.21z"/>
	<path class="st2" d="M182.88,66.84c0,7.73-6.27,14-14.01,14c-7.73,0-14-6.27-14-14c0-7.73,6.27-14,14-14
		C176.61,52.84,182.88,59.11,182.88,66.84z"/>
	<path class="st2" d="M193.66,392.56c0,7.73-6.27,14-14,14c-7.73,0-14-6.27-14-14c0-7.73,6.27-14,14-14
		C187.39,378.56,193.66,384.83,193.66,392.56z"/>
	<circle class="st2" cx="707.4" cy="382.54" r="14"/>
	<path class="st2" d="M717.6,52.99c0,7.73-6.27,14-14,14c-7.73,0-14-6.27-14-14c0-7.73,6.27-14,14-14
		C711.33,38.99,717.6,45.26,717.6,52.99z"/>
	<path class="st2" d="M751.14,117.9c0-10.77,0.8-23.79,0.8-36.85c-0.01-13.06-0.79-26.18-4.14-37.34c-1.68-5.58-4.01-10.69-7.28-15
		c-3.26-4.31-7.49-7.81-12.75-10.06c-5.68-2.43-12.97-3.79-21.02-4.6c-8.04-0.81-16.82-1.04-25.34-1.04
		c-12.12,0-23.74,0.48-31.76,0.47c-122.63,0.01-245.11,5.35-367.6,5.35c-9.46,0-18.93-0.03-28.39-0.1
		c-9.77-0.07-22.32-0.52-35.61-0.52c-19.54,0.01-40.64,0.96-57.23,5.68c-8.29,2.38-15.5,5.69-20.81,10.56
		c-2.65,2.44-4.81,5.27-6.3,8.54c-1.49,3.26-2.29,6.92-2.3,10.92c-0.01,1.55-0.01,3.15-0.01,4.78c0,75.52,5.16,235.47,14.6,358.08
		c0.13,1.71,0.84,3.28,1.88,4.58c1.95,2.43,4.9,4.19,8.76,5.81c6.76,2.8,16.48,5.01,28.8,6.86c36.9,5.52,97,7.53,164.11,7.53
		c81.15,0,172.46-2.98,244.78-6.4c36.16-1.71,67.56-3.53,90.58-5.15c11.51-0.81,20.92-1.57,27.8-2.24c3.44-0.33,6.25-0.65,8.39-0.94
		c1.07-0.14,1.97-0.28,2.72-0.42c0.76-0.14,1.33-0.26,1.91-0.46c4.12-1.47,8.6-1.87,13.01-3.45c2.19-0.8,4.38-1.94,6.3-3.76
		c1.93-1.81,3.53-4.25,4.7-7.4c0.22-0.63,0.32-1.16,0.43-1.84c0.19-1.25,0.35-2.92,0.5-5.08c0.5-7.51,0.82-20.82,1.03-37.86
		c0.2-17.03,0.28-37.76,0.28-59.97C752,232.93,751.14,142.98,751.14,117.9z M740.82,374.5c-0.15,9.14-0.36,16.74-0.62,22.29
		c-0.13,2.77-0.28,5.03-0.43,6.68c-0.08,0.82-0.16,1.5-0.23,1.98c-0.04,0.24-0.07,0.44-0.1,0.57l-0.03,0.14l0,0.01l0,0
		c-0.91,2.44-2,4.01-3.22,5.17c-0.92,0.87-1.94,1.52-3.12,2.05c-1.77,0.81-3.89,1.33-6.26,1.86c-2.37,0.53-4.99,1.06-7.7,2.01
		c-0.05,0.02-0.49,0.14-1.09,0.25c-2.41,0.45-7.7,1.05-15.22,1.72c-52.74,4.69-216.65,13.08-351.62,13.08
		c-53.49,0-102.46-1.32-138.1-4.69c-17.81-1.68-32.31-3.89-42.23-6.64c-4.95-1.36-8.76-2.89-11.16-4.39
		c-1.2-0.75-2.03-1.48-2.51-2.1c-0.17-0.22-0.3-0.42-0.39-0.6l100.01-3.19l-100.48-0.37c-0.38-4.96-0.75-9.99-1.11-15.06l98.98-6.07
		l-99.24,2.43c-0.41-5.74-0.8-11.55-1.19-17.4l38.86-3.48l-39.09,0c-0.28-4.35-0.56-8.72-0.84-13.11l84.16-5.34l-84.38,1.79
		c-0.29-4.68-0.57-9.39-0.85-14.11l76.69-3.96l-76.9,0.36c-0.32-5.62-0.64-11.27-0.95-16.93l25.89-3.41l-26.07,0
		c-0.31-5.81-0.62-11.63-0.91-17.45l27.94-2.88l-28.12-0.58c-0.27-5.38-0.53-10.76-0.79-16.14l24.36-2.23l-24.52-1.12
		c-0.25-5.32-0.49-10.63-0.73-15.92l31.82-4.61l-31.97,1.16c-0.24-5.43-0.47-10.84-0.69-16.23l27.4-2.77l-27.53-0.55
		c-0.26-6.44-0.51-12.84-0.75-19.18l29.48-4.02l-29.61,0.58c-0.22-5.8-0.42-11.56-0.62-17.24l29.63-4.62l-29.75,1.16
		c-0.2-5.95-0.39-11.82-0.57-17.61l50.53-8.76l-50.64,5.25c-0.14-4.59-0.27-9.12-0.4-13.58l41.11-6.31l-41.21,2.86
		c-0.19-6.86-0.36-13.56-0.52-20.08l25.7-5.54l-25.78,2.21c-0.13-5.75-0.25-11.35-0.36-16.79l24.1-5.11l-24.17,1.7
		c-0.1-5.39-0.19-10.6-0.26-15.63l33.99-5.76l-34.04,2.3c-0.09-6.52-0.15-12.71-0.19-18.51l105.77-11l-105.79,7.35
		c-0.01-3.04-0.02-5.97-0.02-8.78c0-1.6,0-3.16,0.01-4.68c0-0.66,0.04-1.29,0.09-1.91l126.25-13.73l-125.6,10.02
		c0.27-0.97,0.6-1.89,1-2.77c1.95-4.28,5.53-7.79,10.55-10.67c7.51-4.31,18.17-7.01,30.03-8.54c11.87-1.54,24.95-1.96,37.43-1.95
		c12.95,0,25.24,0.44,34.96,0.51c9.31,0.07,18.62,0.1,27.94,0.1c120.54-0.01,240.9-5.26,361.23-5.26c8.06,0,19.42-0.47,31.21-0.47
		c8.28,0,16.76,0.23,24.38,1c7.62,0.76,14.39,2.09,19.11,4.12c4.3,1.85,7.64,4.61,10.35,8.18c4.06,5.34,6.63,12.58,8.13,20.91
		c1.51,8.32,1.95,17.68,1.95,27.12c0,12.61-0.79,25.36-0.79,36.21c0,24.72,0.84,113.07,0.84,185.42
		C741.25,331.8,741.13,356.22,740.82,374.5z"/>
	<path class="st2" d="M733.67,144.65l-3.19,200.24l-2.95-200.21c-0.03-1.02,1.32-1.86,3.01-1.88c1.69-0.02,3.09,0.79,3.13,1.81
		V144.65z"/>
	<path class="st2" d="M497.86,360c0.15-0.01,0.29-0.01,0.43-0.02c41.5-0.4,97.87,14,114.9,56.88c-5.95-14.08-17.3-25.43-30.4-33.33
		c-16.34-9.85-35.31-14.93-54.03-17.83c-9.78-1.52-19.71-1.86-29.57-2.52c-1.55-0.1-3.69-1.28-2.8-2.56
		C496.71,360.18,497.29,360.04,497.86,360z"/>
	<path class="st2" d="M290.25,422.41c0,0,13.09,0.08,32.73,0.2c9.82,0.03,21.28,0.07,33.55,0.1c12.27-0.01,25.37-0.02,38.46-0.03
		c13.09-0.03,26.18-0.09,38.46-0.25c6.14-0.06,12.07-0.13,17.7-0.19c5.63-0.13,10.94-0.25,15.85-0.36
		c4.91-0.12,9.41-0.23,13.39-0.33c3.99-0.21,7.46-0.39,10.32-0.53c5.72-0.3,8.99-0.47,8.99-0.47s-3.27,0.23-8.98,0.62
		c-2.86,0.2-6.33,0.44-10.31,0.71c-3.99,0.17-8.48,0.36-13.39,0.57c-4.91,0.2-10.23,0.42-15.85,0.64
		c-5.63,0.16-11.56,0.33-17.69,0.5c-12.27,0.38-25.37,0.67-38.46,0.93c-13.1,0.24-26.19,0.48-38.46,0.71
		c-12.28,0.18-23.74,0.34-33.56,0.49c-19.64,0.22-32.74,0.37-32.74,0.37c-1.02,0.01-1.85-0.8-1.87-1.82
		c-0.01-1.02,0.81-1.86,1.83-1.87H290.25z"/>
	<path class="st2" d="M204.73,201.51c0,10.73-0.4,21.48-0.6,32.2c-0.2,10.56-0.46,21.13-0.59,31.69c-0.12,9.57-0.8,20.43,2.38,29.62
		c2.89,8.35,9.31,14.07,17.67,16.94c8.36,2.86,17.22,3.69,26.05,3.93c-14.87,0.38-38.9-3.24-46.29-18.35
		c-3.82-7.82-3.08-18.11-3.24-26.6c-0.65-34.72-0.56-69.45-0.56-69.45c-0.02-1.02,1.12-1.86,2.55-1.87c1.43-0.01,2.6,0.8,2.62,1.82
		C204.73,201.46,204.73,201.51,204.73,201.51z"/>
	<path class="st2" d="M313.69,85.43l356.16,5.65L313.67,91.1c-1.02,0-1.85-1.27-1.85-2.83c0-1.56,0.83-2.83,1.85-2.83H313.69z"/>
	<path class="st2" d="M198.06,94.54c-8.14,6.59-11.1,12.14-9.99,21.75c0.94,8.15,7.94,16.55,17.76,20.73
		c8.14,3.46,23.67,3.73,35.14,4.08c8.42,0.25,38.1,2.19,38.1,2.19s-26.47,0.01-38.36-0.11c-11.13-0.11-24.93-0.03-31.55-1.37
		c-8.74-1.77-15.1-6.63-17.02-8.51c-4.95-4.87-8.07-11.49-9.25-18.12c-1.29-7.28,3.7-19.23,10.36-24.41
		C199.91,85.59,202.9,90.62,198.06,94.54z"/>
	<path class="st2" d="M670.19,139.13c17.25-0.67,27.61-1.78,32.06-27.53c-0.75,28.34-15.55,30.19-32.04,30.46c0,0-0.02,0-0.03,0
		l-196.55-0.35c-1.02,0-1.84-2.31-1.84-3.33c0-1.02,0.83-1.84,1.85-1.84C473.64,136.54,656.36,139.95,670.19,139.13z"/>
	<path class="st2" d="M414.75,311.25l129.26,0.39l-129.18,3.93c-0.97,0.03-1.79-0.91-1.83-2.1c-0.04-1.19,0.72-2.18,1.69-2.22
		L414.75,311.25z"/>
	<path class="st2" d="M626.68,311.13c0,0,18.62,0.08,37.24,0.15c2.33,0.01,4.66,0.02,6.95,0.03c2.15-0.05,4.41-0.62,6.46-1.27
		c2.07-0.69,4.01-1.59,5.76-2.65c1.71-1.13,3.29-2.34,4.51-3.77c0.31-0.35,0.62-0.69,0.91-1.03c0.26-0.38,0.51-0.75,0.75-1.11
		c0.24-0.36,0.48-0.72,0.71-1.06c0.19-0.38,0.37-0.75,0.54-1.1c0.78-1.39,1.11-2.79,1.49-3.9c0.31-1.13,0.39-2.08,0.52-2.7
		c0.11-0.63,0.16-0.96,0.16-0.96s-0.05,0.34-0.13,0.97c-0.11,0.63-0.15,1.58-0.43,2.73c-0.33,1.13-0.62,2.57-1.36,4.03
		c-0.17,0.37-0.33,0.76-0.51,1.15c-0.22,0.36-0.45,0.73-0.69,1.12c-0.24,0.38-0.48,0.77-0.73,1.17c-0.29,0.36-0.59,0.72-0.9,1.1
		c-1.2,1.53-2.78,2.86-4.5,4.11c-1.76,1.18-3.73,2.21-5.83,3.02c-2.13,0.78-4.3,1.47-6.73,1.66c-2.29,0.1-4.62,0.21-6.94,0.31
		c-18.61,0.85-37.22,1.69-37.22,1.69c-0.87,0.04-1.6-0.76-1.63-1.77c-0.03-1.02,0.64-1.88,1.51-1.92L626.68,311.13z"/>
	<path class="st4" d="M242.26,247.12c0,0-0.09,2.13,0.23,6.03c0.31,3.87,1.03,9.41,2.7,15.9c0.86,3.23,1.89,6.71,3.3,10.28
		c1.36,3.59,3.06,7.27,5.1,10.92c1.97,3.7,4.47,7.25,7.12,10.76c1.44,1.66,2.76,3.45,4.35,5.02l2.31,2.42l2.47,2.27
		c1.61,1.57,3.43,2.87,5.16,4.29c1.77,1.37,3.66,2.55,5.46,3.83c1.91,1.11,3.78,2.26,5.69,3.3c1.95,0.95,3.85,1.95,5.77,2.82
		c1.95,0.8,3.88,1.59,5.76,2.36c1.93,0.65,3.82,1.28,5.66,1.89c1.84,0.62,3.69,1.01,5.45,1.5c0.88,0.24,1.75,0.46,2.61,0.69
		c0.87,0.17,1.71,0.34,2.54,0.51c1.66,0.33,3.26,0.64,4.78,0.94c1.52,0.27,2.98,0.42,4.35,0.62c2.73,0.39,5.12,0.71,7.1,0.81
		c3.95,0.31,6.21,0.48,6.21,0.48s-2.26-0.12-6.22-0.32c-1.99-0.05-4.38-0.31-7.13-0.63c-1.37-0.16-2.84-0.28-4.38-0.51
		c-1.53-0.26-3.14-0.54-4.82-0.82c-0.84-0.14-1.7-0.29-2.57-0.44c-0.86-0.2-1.74-0.41-2.63-0.62c-1.78-0.45-3.66-0.8-5.53-1.37
		c-1.87-0.57-3.79-1.16-5.76-1.76c-1.92-0.73-3.88-1.48-5.88-2.24c-1.97-0.83-3.92-1.8-5.92-2.71c-1.96-1.01-3.89-2.13-5.86-3.21
		c-1.87-1.25-3.83-2.41-5.67-3.76c-1.8-1.39-3.7-2.69-5.39-4.25l-2.6-2.26l-2.43-2.42c-1.67-1.57-3.08-3.37-4.6-5.04
		c-2.81-3.54-5.48-7.13-7.6-10.88c-2.2-3.71-4.05-7.46-5.54-11.12c-1.55-3.64-2.7-7.2-3.67-10.52c-1.89-6.65-2.79-12.36-3.21-16.38
		c-0.22-2.01-0.32-3.61-0.36-4.7c-0.02-0.56-0.03-0.99-0.04-1.28c0-0.28,0-0.43,0-0.43v-0.01c-0.01-1.02,0.81-1.85,1.83-1.86
		c1.02-0.01,1.85,0.81,1.87,1.83L242.26,247.12z"/>
	<path class="st4" d="M519.85,259.29c0,0,0.51,1.32,1.67,3.66c1.15,2.31,2.9,5.6,5.34,9.34c1.2,1.88,2.61,3.85,4.14,5.9
		c1.58,2.01,3.26,4.14,5.16,6.18c1.87,2.07,3.93,4.11,6.12,6.06c2.2,1.95,4.52,3.82,6.98,5.53c1.2,0.9,2.5,1.63,3.74,2.46
		c1.28,0.76,2.57,1.49,3.86,2.19c2.62,1.34,5.26,2.54,7.9,3.5c2.63,0.98,5.25,1.74,7.76,2.33c1.26,0.26,2.49,0.55,3.68,0.77
		c1.21,0.18,2.37,0.35,3.48,0.51c2.24,0.24,4.31,0.43,6.15,0.47c1.84,0,3.44,0.1,4.76,0.01c2.64-0.13,4.15-0.21,4.15-0.21
		s-1.51,0.13-4.14,0.37c-1.32,0.14-2.93,0.1-4.78,0.17c-1.85,0.03-3.93-0.09-6.2-0.24c-1.13-0.12-2.31-0.25-3.53-0.38
		c-1.21-0.17-2.46-0.42-3.75-0.63c-2.56-0.51-5.25-1.17-7.96-2.06c-2.72-0.87-5.46-2-8.19-3.26c-1.35-0.67-2.7-1.36-4.04-2.09
		c-1.3-0.79-2.66-1.5-3.92-2.37c-2.58-1.65-5.04-3.48-7.37-5.4c-2.32-1.92-4.52-3.93-6.52-5.99c-2.04-2.03-3.85-4.14-5.55-6.16
		c-1.66-2.05-3.19-4.02-4.5-5.91c-2.66-3.76-4.6-7.09-5.9-9.46c-1.28-2.36-1.93-3.84-1.93-3.84l-0.01-0.03
		c-0.41-0.93,0.02-2.02,0.96-2.43c0.93-0.41,2.02,0.02,2.43,0.96L519.85,259.29z"/>
	<path class="st2" d="M293.93,409.38c3.88-10.49,16.83-19.13,25.93-24.8c24.66-15.38,54.32-19.03,82.75-20.35
		c3.44-0.16,5.41-0.25,5.43-0.25c-26.98,1.22-55.49,6-79.86,18.71c-11.96,6.24-22.87,14.98-30,26.42c-0.66,1.06-1.41,2.24-2.62,2.56
		C293.37,412.23,293.37,410.88,293.93,409.38z"/>
	<path class="st2" d="M307.77,411.96l131.04,0.61l-131.01,3.08c-1.02,0.02-1.86-0.78-1.89-1.8c-0.02-1.02,0.78-1.86,1.8-1.89H307.77
		z"/>
	<path class="st2" d="M324.76,401.99l103.75,0.59l-103.72,2.96c-0.81,0.02-1.48-0.75-1.5-1.73c-0.02-0.98,0.62-1.79,1.43-1.81
		L324.76,401.99z"/>
</g>
<g>
	<path d="M831.28,282.15c-1.19-0.82-1.55-2-1.09-3.55c0.45-1.55,1.37-2.32,2.73-2.32l43.89-0.14c19.23-0.09,34.32,2.85,45.26,8.82
		c10.94,5.97,16.41,14.65,16.41,26.05c0,11.4-5.42,20.03-16.27,25.91c-10.85,5.88-25.98,8.82-45.39,8.82h-5.61v15.86
		c0,2.55,1.18,4.56,3.56,6.02c0.18,0.09,0.96,0.59,2.32,1.5c1.18,0.82,1.55,2.01,1.09,3.55c-0.46,1.55-1.41,2.32-2.87,2.32h-42.25
		c-1.46,0-2.42-0.77-2.87-2.32c-0.46-1.55-0.09-2.73,1.09-3.55c0.27-0.18,1.18-0.73,2.73-1.64c2.1-1,3.33-2.78,3.69-5.33v-72.46
		c0-2.64-1.23-4.65-3.69-6.02C833.11,283.2,832.19,282.7,831.28,282.15z M871.21,291.04v41.29v1.09c0,1.28,0.36,2.28,1.09,3.01
		c0.73,0.73,1.73,1.09,3.01,1.09c10.12,0,17.59-2.14,22.42-6.43c4.83-4.28,7.25-10.94,7.25-19.96c0-9.11-2.39-15.84-7.18-20.17
		c-4.78-4.33-12.28-6.49-22.49-6.49c-1.19-0.09-2.17,0.25-2.94,1.03c-0.78,0.78-1.16,1.8-1.16,3.08v1.09V291.04z"/>
	<path d="M946.13,321.39c-1.55-0.18-2.46-1.12-2.74-2.8c-0.27-1.69,0.32-2.89,1.78-3.62c4.37-2.46,9.66-4.17,15.86-5.13
		c6.2-0.96,11.53-0.75,16,0.62c3.28,1,5.1,4.15,5.47,9.43c3.55-6.29,9.11-9.89,16.68-10.8c9.11-1.09,16.59,0.25,22.42,4.03
		c5.83,3.78,8.7,8.59,8.61,14.42c-0.09,4.1-1.64,7.38-4.65,9.84c-3.01,2.46-7.29,3.42-12.85,2.87c-3.47-0.36-6.02-1.39-7.66-3.08
		c-1.64-1.69-2.55-3.65-2.73-5.88c-0.18-2.23-0.25-4.42-0.21-6.56c0.04-2.14-0.27-3.92-0.96-5.33c-0.68-1.41-2.03-2.07-4.03-1.98
		c-2.83,0.09-5.15,1.46-6.97,4.1c-1.82,2.64-3.06,5.47-3.69,8.48c-0.64,3.01-0.96,6.02-0.96,9.02v22.56c0,2.46,1.18,4.47,3.55,6.02
		c0.18,0.09,0.96,0.59,2.32,1.5c1.18,0.82,1.55,2.01,1.09,3.55c-0.46,1.55-1.41,2.32-2.87,2.32h-39.1c-1.46,0-2.42-0.77-2.87-2.32
		c-0.46-1.55-0.09-2.73,1.09-3.55c0.55-0.36,1.46-0.91,2.74-1.64c2.46-1.18,3.69-3.14,3.69-5.88v-37.87c0-1.28-0.41-2.1-1.23-2.46
		c-0.82-0.36-2.19-0.43-4.1-0.21C947.91,321.28,946.68,321.39,946.13,321.39z"/>
	<path d="M1073.01,376.9c-11.58,0-20.74-2.94-27.48-8.82c-6.75-5.88-10.12-14.24-10.12-25.09c0-10.85,3.37-19.21,10.12-25.09
		c6.74-5.88,15.9-8.82,27.48-8.82c11.76,0,20.99,2.85,27.69,8.54c6.7,5.7,10.05,14.15,10.05,25.36c0,11.21-3.35,19.67-10.05,25.36
		C1094,374.05,1084.77,376.9,1073.01,376.9z M1075.4,321.25c-1.5-3.37-3.76-4.78-6.77-4.24c-3.01,0.55-4.67,2.73-4.99,6.56
		c-0.32,3.83,0.43,10.71,2.26,20.65c1.73,10.3,3.33,17.16,4.79,20.58c1.46,3.42,3.69,4.85,6.7,4.31c3.01-0.55,4.67-2.76,4.99-6.63
		c0.32-3.87-0.39-10.78-2.12-20.71C1078.52,331.46,1076.91,324.63,1075.4,321.25z"/>
	<path d="M1133.85,406.43c-3.92,0.09-7.5-0.16-10.73-0.75c-3.24-0.59-5.83-1.37-7.79-2.32c-1.96-0.96-3.58-2.01-4.85-3.14
		c-1.28-1.14-2.1-2.26-2.46-3.35c-0.36-1.09-0.41-2.1-0.14-3.01c0.27-1,0.98-1.53,2.12-1.57c1.14-0.05,2.37,0.16,3.69,0.62
		c1.32,0.45,2.8,0.96,4.44,1.5c1.64,0.55,2.96,0.82,3.96,0.82c3.28,0,4.92-2.23,4.92-6.7l0.14-63.3c0-1.28-0.41-2.1-1.23-2.46
		c-0.82-0.36-2.21-0.43-4.17-0.21c-1.96,0.23-3.21,0.34-3.76,0.34c-1.55-0.18-2.46-1.12-2.73-2.8c-0.27-1.69,0.32-2.89,1.78-3.62
		c4.28-2.46,10.14-4.17,17.57-5.13c7.43-0.96,13.33-0.75,17.71,0.62c3.56,1.09,5.42,5.29,5.61,12.58l0.14,60.84
		C1158.05,399.23,1149.99,406.25,1133.85,406.43z M1127.08,296.37c-3.33-2.64-4.99-6.33-4.99-11.07c0-4.74,1.66-8.41,4.99-11.01
		c3.33-2.6,8-3.9,14.02-3.9c5.92,0,10.53,1.3,13.81,3.9c3.28,2.6,4.92,6.27,4.92,11.01c0,4.74-1.64,8.43-4.92,11.07
		c-3.28,2.64-7.89,3.97-13.81,3.97C1135.08,300.34,1130.41,299.02,1127.08,296.37z"/>
	<path d="M1169.54,342.99c-0.27-10.75,3.3-19.09,10.73-25.02c7.43-5.92,17.02-8.89,28.78-8.89c9.21,0,16.79,1.94,22.76,5.81
		c5.97,3.88,9.46,8.68,10.46,14.43c0.73,4.19-0.34,7.95-3.21,11.28c-2.87,3.33-6.59,5.74-11.14,7.25c-4.56,1.5-9.34,2.65-14.36,3.42
		c-5.01,0.78-9.25,0.75-12.72-0.07c3.56,9.21,9.52,13.9,17.91,14.08c4.38,0,8.09-1.14,11.14-3.42c3.05-2.28,5.03-5.56,5.95-9.84
		c0.64-3.01,2.28-4.38,4.92-4.1c2.55,0.37,3.55,2.14,3.01,5.33c-3.37,15.77-15.59,23.65-36.64,23.65c-11.48,0-20.56-2.94-27.21-8.82
		C1173.27,362.2,1169.81,353.84,1169.54,342.99z M1205.22,317.02c-3.1,0.64-5.31,3.58-6.63,8.82c-1.32,5.24-1.21,11.42,0.34,18.53
		c3.83,0.37,7.54,0,11.14-1.09c3.6-1.09,5.81-3.19,6.63-6.29c1.46-5.1,0.89-9.91-1.71-14.43
		C1212.4,318.04,1209.14,316.2,1205.22,317.02z"/>
	<path d="M1252.12,342.99c-0.27-10.75,3.3-19.09,10.73-25.02c7.43-5.92,17.02-8.89,28.78-8.89c9.48,0,17.27,1.73,23.38,5.2
		c6.11,3.47,9.39,7.89,9.84,13.26c0.45,4.01-0.91,7.27-4.1,9.78c-3.19,2.51-7.61,3.49-13.26,2.94c-3.74-0.36-6.49-1.53-8.27-3.49
		c-1.78-1.96-2.78-4.12-3.01-6.49c-0.23-2.37-0.39-4.69-0.48-6.97c-0.09-2.28-0.71-4.06-1.85-5.33c-1.14-1.28-3.17-1.59-6.08-0.96
		c-3.19,0.64-5.4,3.6-6.63,8.89c-1.23,5.29-1.07,11.58,0.48,18.87c3.01,13.49,9.57,20.33,19.69,20.51c4.38,0,8.09-1.14,11.14-3.42
		c3.05-2.28,5.03-5.56,5.95-9.84c0.64-3.01,2.28-4.38,4.92-4.1c2.55,0.37,3.55,2.14,3.01,5.33c-3.37,15.77-15.59,23.65-36.64,23.65
		c-11.48,0-20.56-2.94-27.21-8.82C1255.85,362.2,1252.39,353.84,1252.12,342.99z"/>
	<path d="M1336.61,318.25c-2.28,0-3.42-1.14-3.42-3.42v-0.14c0-2,0.96-3.1,2.87-3.28l-0.14-0.14c4.65-0.09,8.34-2.48,11.07-7.18
		c2.73-4.69,4.47-10.23,5.2-16.61c0.18-2.73,1.59-4.42,4.24-5.06l14.63-3.01c1.18-0.27,2.16-0.11,2.94,0.48
		c0.77,0.59,1.16,1.53,1.16,2.8v28.57h12.17c2.28,0,3.42,1.19,3.42,3.56c0,2.28-1.14,3.42-3.42,3.42h-12.17v42.66
		c0,4.38,1.69,6.56,5.06,6.56c1.28,0,3.19-0.36,5.74-1.09c2.55-0.73,4.24-1.09,5.06-1.09c1,0,1.69,0.27,2.05,0.82
		c0.09,0.46,0.16,0.98,0.21,1.57c0.04,0.59-0.21,1.23-0.75,1.91c-0.55,0.68-1.19,1.39-1.91,2.12c-0.73,0.73-1.8,1.44-3.21,2.12
		c-1.41,0.68-2.99,1.28-4.72,1.78c-1.73,0.5-3.83,0.89-6.29,1.16c-2.46,0.27-5.15,0.36-8.07,0.27c-7.93-0.09-13.95-1.89-18.05-5.4
		c-4.1-3.51-6.11-8.68-6.02-15.52v-37.87H1336.61z"/>
	<path d="M1447.63,374.99c-1.37,0-2.28-0.77-2.73-2.32c-0.46-1.55-0.09-2.73,1.09-3.55c0.64-0.46,1.55-1,2.73-1.64
		c2.46-1.18,3.69-3.14,3.69-5.88v-72.33c0-2.64-1.23-4.6-3.69-5.88c-1.19-0.64-2.1-1.18-2.73-1.64c-1.19-0.82-1.55-2-1.09-3.55
		c0.45-1.55,1.37-2.32,2.73-2.32h42.38c1.46,0,2.41,0.78,2.87,2.32c0.45,1.55,0.09,2.73-1.09,3.55c-1.09,0.73-1.87,1.23-2.32,1.5
		c-2.37,1.46-3.56,3.46-3.56,6.02v1.37v70.96v1.09c0,1.28,0.36,2.28,1.09,3.01c0.73,0.73,1.73,1.09,3.01,1.09h0.14h13.4
		c2.28,0,4.35-0.21,6.22-0.62c1.87-0.41,3.35-0.82,4.44-1.23c1.09-0.41,2.21-1.18,3.35-2.32c1.14-1.14,1.89-1.94,2.26-2.39
		c0.36-0.46,1.03-1.46,1.98-3.01c0.96-1.55,1.53-2.46,1.71-2.73c1.82-2.73,3.99-3.83,6.49-3.28c2.51,0.55,3.49,2.42,2.94,5.61
		c-0.55,3.74-1.55,8.48-3.01,14.22c-0.64,2.64-2.32,3.96-5.06,3.96H1447.63z"/>
	<path d="M1538.83,360.22c-0.46-5.01,0.52-9.34,2.94-12.99c2.41-3.64,5.56-6.31,9.43-8c3.87-1.69,8.09-2.89,12.65-3.62
		c4.56-0.73,8.7-1,12.44-0.82c3.74,0.18,6.74,0.64,9.02,1.37v-4.65c0-5.28-0.62-9.16-1.85-11.62c-1.23-2.46-3.3-3.74-6.22-3.83
		c-1.64,0-3.01,0.18-4.1,0.55c-1.09,0.37-1.98,1.12-2.67,2.26c-0.68,1.14-1.16,2.07-1.44,2.8c-0.27,0.73-0.68,2.01-1.23,3.83
		c-0.73,2.55-2.92,4.24-6.56,5.06c-3.65,0.82-7.13,0.53-10.46-0.89c-3.33-1.41-4.9-3.58-4.72-6.49c0.27-4.19,3.39-7.59,9.37-10.19
		c5.97-2.6,13.79-3.85,23.45-3.76c11.3,0,20.39,2.21,27.28,6.63c6.88,4.42,10.32,11.28,10.32,20.58
		c-0.09,6.29-0.14,14.31-0.14,24.06c0,4.38,1.05,6.7,3.14,6.97c0.73,0.09,1.69-0.21,2.87-0.89c1.18-0.68,2.05-0.98,2.6-0.89
		c1.28,0.37,1.64,1.46,1.09,3.28c-1.19,3.28-4.74,5.56-10.66,6.84c-3.01,0.64-6.34,0.96-9.98,0.96c-5.29-0.09-9.75-1.16-13.4-3.21
		c-3.65-2.05-5.83-5.04-6.56-8.96c-2.1,3.92-5.29,6.95-9.57,9.09c-4.29,2.14-9.02,3.21-14.22,3.21c-6.2,0-11.42-1.5-15.66-4.51
		S1539.37,365.33,1538.83,360.22z M1569.04,352.29c-0.27,3.46,0.32,6.29,1.78,8.48c1.46,2.19,3.69,3.24,6.7,3.14
		c4.92-0.09,7.47-4.51,7.66-13.26l0.14-7.52c-1-0.45-2.21-0.8-3.62-1.03c-1.41-0.23-3.08-0.25-4.99-0.07
		c-1.91,0.18-3.6,1.14-5.06,2.87C1570.18,346.64,1569.32,349.1,1569.04,352.29z"/>
	<path d="M1631.93,321.39c-1.55-0.18-2.46-1.12-2.73-2.8c-0.27-1.69,0.32-2.89,1.78-3.62c4.28-2.46,10.12-4.17,17.5-5.13
		c7.38-0.96,13.31-0.75,17.77,0.62c3.64,1.19,5.47,5.2,5.47,12.03c2.55-4.01,5.92-7.22,10.12-9.64c4.19-2.41,8.7-3.67,13.54-3.76
		c7.29-0.18,12.85,0.89,16.68,3.21c3.83,2.33,6.24,5.99,7.25,11.01c2.46-4.19,5.83-7.59,10.12-10.19c4.28-2.6,8.93-3.94,13.95-4.03
		c8.66-0.09,14.9,1.5,18.73,4.78c3.83,3.28,5.74,8.71,5.74,16.27v30.08v1.37c0,2.46,1.18,4.47,3.55,6.02
		c0.18,0.09,0.96,0.59,2.32,1.5c1.18,0.82,1.55,2.01,1.09,3.55c-0.46,1.55-1.41,2.32-2.87,2.32h-22.42
		c-8.11,0-12.26-4.51-12.44-13.54l0.14-22.15c0-0.45,0-1.09,0-1.91c0-2.37-0.02-4.15-0.07-5.33c-0.05-1.18-0.23-2.6-0.55-4.24
		c-0.32-1.64-0.91-2.8-1.78-3.49c-0.87-0.68-1.98-1.03-3.35-1.03c-2.92,0.09-5.52,1.76-7.79,4.99c-2.28,3.24-3.55,6.77-3.83,10.6
		v22.7c0,2.55,1.18,4.56,3.56,6.02c0.18,0.09,0.96,0.59,2.32,1.5c1.18,0.82,1.55,2.01,1.09,3.55c-0.46,1.55-1.41,2.32-2.87,2.32
		h-22.56c-8.02,0-12.12-4.51-12.31-13.54V339.3c0.09-1.82,0.11-3.69,0.07-5.61c-0.05-1.91-0.21-3.64-0.48-5.2
		c-0.27-1.55-0.84-2.8-1.71-3.76c-0.87-0.96-2.07-1.44-3.62-1.44c-3.1,0.09-5.81,1.96-8.14,5.61c-2.32,3.65-3.49,7.43-3.49,11.35
		v21.33c0,2.46,1.18,4.47,3.56,6.02c0.18,0.09,0.96,0.59,2.32,1.5c1.18,0.82,1.55,2.01,1.09,3.55c-0.46,1.55-1.41,2.32-2.87,2.32
		h-39.51c-1.46,0-2.42-0.77-2.87-2.32c-0.46-1.55-0.09-2.73,1.09-3.55c0.55-0.36,1.46-0.91,2.73-1.64c2.46-1.18,3.69-3.14,3.69-5.88
		v-37.87c0-1.28-0.41-2.1-1.23-2.46c-0.82-0.36-2.19-0.43-4.1-0.21C1633.71,321.28,1632.48,321.39,1631.93,321.39z"/>
</g>
</svg>
